<?xml version="1.0" encoding="UTF-8"?>
<!DOCTYPE svg PUBLIC "-//W3C//DTD SVG 1.1//EN" "http://www.w3.org/Graphics/SVG/1.1/DTD/svg11.dtd">
<svg xmlns="http://www.w3.org/2000/svg" version="1.1" width="257px" height="65px" style="shape-rendering:geometricPrecision; text-rendering:geometricPrecision; image-rendering:optimizeQuality; fill-rule:evenodd; clip-rule:evenodd" xmlns:xlink="http://www.w3.org/1999/xlink">
<g><path style="opacity:1" fill="#e9eef6" d="M -0.5,-0.5 C 85.1667,-0.5 170.833,-0.5 256.5,-0.5C 256.5,19.1667 256.5,38.8333 256.5,58.5C 242.829,58.6666 229.163,58.4999 215.5,58C 205.975,40.4514 196.308,22.9514 186.5,5.5C 158.188,3.95279 129.855,2.78613 101.5,2C 101,1.5 100.5,1 100,0.5C 81.4439,18.7218 63.2772,37.2218 45.5,56C 31.504,56.4999 17.504,56.6666 3.5,56.5C 2.53178,58.6074 2.19845,60.9407 2.5,63.5C 18.1667,63.5 33.8333,63.5 49.5,63.5C 49.5,62.5 49.5,61.5 49.5,60.5C 66.5572,43.9439 83.5572,27.1106 100.5,10C 127.855,9.92403 155.188,10.7574 182.5,12.5C 191.699,30.2456 201.366,47.5789 211.5,64.5C 190.167,64.5 168.833,64.5 147.5,64.5C 161.444,54.3859 164.277,41.7192 156,26.5C 148.762,17.9051 139.596,15.0717 128.5,18C 110.928,27.1174 107.094,40.2841 117,57.5C 119.628,60.2105 122.461,62.5438 125.5,64.5C 83.5,64.5 41.5,64.5 -0.5,64.5C -0.5,42.8333 -0.5,21.1667 -0.5,-0.5 Z"/></g>
<g><path style="opacity:1" fill="#fefe1a" d="M 256.5,58.5 C 256.5,60.5 256.5,62.5 256.5,64.5C 241.5,64.5 226.5,64.5 211.5,64.5C 201.366,47.5789 191.699,30.2456 182.5,12.5C 155.188,10.7574 127.855,9.92403 100.5,10C 83.5572,27.1106 66.5572,43.9439 49.5,60.5C 34.4082,62.4595 19.0748,63.1262 3.5,62.5C 3.5,60.5 3.5,58.5 3.5,56.5C 17.504,56.6666 31.504,56.4999 45.5,56C 63.2772,37.2218 81.4439,18.7218 100,0.5C 100.5,1 101,1.5 101.5,2C 129.855,2.78613 158.188,3.95279 186.5,5.5C 196.308,22.9514 205.975,40.4514 215.5,58C 229.163,58.4999 242.829,58.6666 256.5,58.5 Z"/></g>
<g><path style="opacity:1" fill="#46789c" d="M 147.5,64.5 C 140.167,64.5 132.833,64.5 125.5,64.5C 122.461,62.5438 119.628,60.2105 117,57.5C 107.094,40.2841 110.928,27.1174 128.5,18C 139.596,15.0717 148.762,17.9051 156,26.5C 164.277,41.7192 161.444,54.3859 147.5,64.5 Z"/></g>
<g><path style="opacity:1" fill="#04ae52" d="M 132.5,19.5 C 147.629,19.3012 156.296,26.6346 158.5,41.5C 154.983,60.8734 143.983,67.3734 125.5,61C 115.376,53.9002 112.21,44.4002 116,32.5C 119.772,25.8765 125.272,21.5432 132.5,19.5 Z"/></g>
<g><path style="opacity:1" fill="#43779a" d="M 132.5,28.5 C 144.681,27.846 150.181,33.5127 149,45.5C 144.871,53.9762 138.371,56.4762 129.5,53C 123.888,48.8244 122.055,43.3244 124,36.5C 126.074,32.9231 128.907,30.2565 132.5,28.5 Z"/></g>
<g><path style="opacity:1" fill="#e4ebf4" d="M 132.5,31.5 C 143.042,30.5394 147.542,35.2061 146,45.5C 142.723,51.1088 137.89,52.9422 131.5,51C 123.31,43.9986 123.643,37.4986 132.5,31.5 Z"/></g>
<g><path style="opacity:1" fill="#f4f680" d="M 3.5,56.5 C 3.5,58.5 3.5,60.5 3.5,62.5C 19.0748,63.1262 34.4082,62.4595 49.5,60.5C 49.5,61.5 49.5,62.5 49.5,63.5C 33.8333,63.5 18.1667,63.5 2.5,63.5C 2.19845,60.9407 2.53178,58.6074 3.5,56.5 Z"/></g>
</svg>
